<?xml version="1.0" encoding="UTF-8" standalone="no"?>
<svg
   width="662"
   height="875"
   viewBox="0 0 662 875"
   fill="none"
   version="1.1"
   id="svg89"
   sodipodi:docname="bg_headline_desktop.svg"
   inkscape:version="1.1 (c68e22c387, 2021-05-23)"
   xmlns:inkscape="http://www.inkscape.org/namespaces/inkscape"
   xmlns:sodipodi="http://sodipodi.sourceforge.net/DTD/sodipodi-0.dtd"
   xmlns="http://www.w3.org/2000/svg"
   xmlns:svg="http://www.w3.org/2000/svg">
  <sodipodi:namedview
     id="namedview91"
     pagecolor="#505050"
     bordercolor="#ffffff"
     borderopacity="1"
     inkscape:pageshadow="0"
     inkscape:pageopacity="0"
     inkscape:pagecheckerboard="1"
     showgrid="false"
     inkscape:zoom="0.928"
     inkscape:cx="331.35776"
     inkscape:cy="350.75431"
     inkscape:window-width="1920"
     inkscape:window-height="1001"
     inkscape:window-x="-9"
     inkscape:window-y="-9"
     inkscape:window-maximized="1"
     inkscape:current-layer="svg89" />
  <g
     clip-path="url(#clip0)"
     id="g82"
     transform="matrix(0.82589025,0,0,0.84227097,119.95874,163.96485)">
    <path
       d="m 766.504,80.1959 54.935,89.4201 c 0,0 -33.107,16.025 -79.941,51.744 -39.789,30.479 -90.172,88.002 -90.172,88.002 L 558,148.674 c 0,0 41.683,-49.3584 103.619,-90.9073 57.269,-38.6115 69.185,-36.1616 69.185,-36.1616 z"
       fill="#ffffff"
       stroke="#262626"
       stroke-width="1.22338"
       stroke-miterlimit="10"
       id="path2" />
    <path
       d="m 577.835,127.287 82.282,144.573 c 0,0 27.489,-30.357 57.846,-56.304 52.382,-44.379 92.658,-63.213 92.658,-63.213 L 730.479,21.4213 c 0.325,0.1838 -72.892,18.8347 -152.644,105.8657 z"
       fill="#262626"
       id="path4" />
    <path
       d="m 989.606,104.922 c 0,0 -43.846,-33.5956 -134.702,-0.467 C 764.047,137.583 665.378,226.57 665.378,226.57 L 574.1,68.3277 c 0,0 124.552,-104.3797 208.271,-120.7367 67.841,-13.3255 103.356,5.0466 103.356,5.0466 z"
       fill="#ffffff"
       stroke="#262626"
       stroke-width="1.22338"
       stroke-miterlimit="10"
       id="path6" />
    <path
       d="M 969.056,34.7358 859.587,266.702 553.478,228.275"
       stroke="#ff6b00"
       stroke-width="1.22338"
       stroke-miterlimit="10"
       id="path8" />
    <path
       d="m 552.459,355.12 167.477,-46.421 23.058,83.188 -167.477,46.422 z"
       fill="#ffffff"
       stroke="#ff6b00"
       stroke-width="1.22338"
       stroke-miterlimit="10"
       id="path10" />
    <path
       d="m 467.644,697.776 -19.09,5.291 c -4.989,-2.178 -10.162,-4.031 -15.222,-6.464 -0.65,-0.368 -1.229,-0.481 -1.879,-0.849 l -6.065,-21.878 33.089,-9.172 z"
       fill="#ffffff"
       stroke="#ff6b00"
       stroke-width="1.22338"
       stroke-miterlimit="10"
       id="path12" />
    <path
       d="m 509.898,721.677 33.088,-9.172 -9.167,-33.072 -33.088,9.172 -9.167,-33.072 33.088,-9.171 -9.167,-33.072 -33.088,9.171 -33.088,9.172 -9.167,-33.072 33.088,-9.172 -9.167,-33.072 -33.088,9.172 9.167,33.072 -33.088,9.171 -33.088,9.172 -9.167,-33.072 -33.088,9.171 -33.088,9.172 9.167,33.072 9.167,33.071 -33.088,9.172 -9.167,-33.072 -14.763,4.092 -15.442,-222.82 c 0,0 21.921,-32.649 80.819,-34.73 88.221,-3.085 131.52,44.359 204.529,60.557 45.884,10.293 56.063,-10.335 56.063,-10.335 l 29.771,191.454 c 0,0 76.792,-16.628 120.64,34.773 26.021,30.592 -13.091,62.527 -53.56,73.744 -42.251,11.711 -92.223,4.469 -172.226,-17.187 z"
       fill="#ffffff"
       stroke="#ff6b00"
       stroke-width="1.22338"
       stroke-miterlimit="10"
       id="path14" />
    <path
       d="m 509.899,721.677 -4.072,1.128 c -11.294,-3.17 -22.729,-6.849 -34.304,-11.037 l -3.879,-13.992 33.088,-9.171 z"
       fill="#ffffff"
       stroke="#ff6b00"
       stroke-width="1.22338"
       stroke-miterlimit="10"
       id="path16" />
    <path
       d="m 425.389,673.876 -32.325,8.959 c -0.254,0.071 -0.579,-0.113 -0.834,-0.042 l -9.096,-32.818 33.088,-9.171 z"
       fill="#ffffff"
       stroke="#ff6b00"
       stroke-width="1.22338"
       stroke-miterlimit="10"
       id="path18" />
    <path
       d="m 355.405,678.481 c -12.879,0.009 -24.176,1.77 -34.428,4.338 l -4.019,-14.501 33.088,-9.171 z"
       fill="#ffffff"
       stroke="#ff6b00"
       stroke-width="1.22338"
       stroke-miterlimit="10"
       id="path20" />
    <path
       d="m 267.585,717.616 -2.546,0.706 -2.549,-34.906 21.38,-5.926 5.359,19.334 c -10.905,7.132 -18.262,15.198 -21.644,20.792 z"
       fill="#ffffff"
       stroke="#ff6b00"
       stroke-width="1.22338"
       stroke-miterlimit="10"
       id="path22" />
    <path
       d="m 340.879,626.075 33.088,-9.172 9.167,33.072 -33.088,9.172 z"
       fill="#ffffff"
       stroke="#ff6b00"
       stroke-width="1.22338"
       stroke-miterlimit="10"
       id="path24" />
    <path
       d="m 557.213,454.34 30.465,231.532 c 0,0 55.46,-39.206 129.632,-27.714 L 675.995,435.935 c 0,0 -35.226,-27.218 -89.763,5.431 0,0 -11.248,13.802 -29.019,12.974 z"
       fill="#262626"
       id="path26" />
    <path
       d="m 586.233,441.365 -7.032,-55.031 c 0,0 82.15,-15.1 122.45,35.367 l 42.012,257.369 c 0,0 -4.329,-16.607 -53.984,-31.607 -29.895,-8.972 -70.916,3.22 -70.916,3.22 z"
       fill="#ffffff"
       stroke="#ff6b00"
       stroke-width="1.22338"
       stroke-miterlimit="10"
       id="path28" />
    <path
       d="m 383.94,395.804 c 0,0 -32.01,-16.604 -72.538,-2.631 -40.528,13.973 -138.336,104.091 -138.336,104.091 l -3.073,174.807 c 0,0 119.375,-101.301 158.698,-109.735 37.47,-8.195 69.41,8.155 69.41,8.155 z"
       fill="#262626"
       id="path30" />
    <path
       d="m 352.725,352.407 c 0,0 -30.22,-9.156 -72.538,-2.631 -38.105,5.905 -138.336,104.091 -138.336,104.091 l -3.073,174.807 c 0,0 120.574,-96.977 158.698,-109.735 38.123,-12.759 68.708,0.679 68.708,0.679 z"
       fill="#ffffff"
       stroke="#ff6b00"
       stroke-width="1.22338"
       stroke-miterlimit="10"
       id="path32" />
    <path
       d="m 252.258,362.722 0.569,78.191 -76.172,61.383 0.437,-81.482 55.619,-45.551 z"
       fill="#262626"
       id="path34" />
    <path
       d="m 339.867,697.581 85.52,-23.705 15.019,54.187 -85.52,23.705 z"
       fill="#ffffff"
       stroke="#ff6b00"
       stroke-width="1.22338"
       stroke-miterlimit="10"
       id="path36" />
    <path
       d="m 418.5,705.671 -0.377,-1.357 -12.466,-2.536 0.602,2.171 9.499,1.715 -0.106,-0.117 0.094,0.339 0.03,-0.155 -7.26,6.361 0.601,2.171 z m -24.656,-6.172 11.362,19.246 1.832,-0.508 -11.362,-19.246 z m -8.342,21.894 0.949,-1.651 -6.868,-3.887 13.927,-3.86 -0.517,-1.866 -13.927,3.86 3.891,-6.851 -1.668,-0.944 -5.493,9.706 z m -24.973,0.346 12.467,2.536 -0.602,-2.171 -9.499,-1.715 0.105,0.117 -0.094,-0.339 -0.03,0.154 7.261,-6.36 -0.602,-2.171 -9.382,8.592 z"
       fill="#000000"
       id="path38" />
    <path
       d="m 232.595,358.036 0.314,78.261 -76.172,61.384 0.461,-75.463 z"
       fill="#ffffff"
       stroke="#262626"
       stroke-width="1.22338"
       stroke-miterlimit="10"
       id="path40" />
    <path
       d="m 341.951,293.756 -6.92,-73.417 76.242,-61.129 6.074,70.364 z"
       fill="#ffffff"
       stroke="#262626"
       stroke-width="1.22338"
       stroke-miterlimit="10"
       id="path42" />
    <path
       d="m 376.201,239.335 c -4.78,1.325 -9.727,-1.474 -11.052,-6.251 -1.324,-4.777 1.477,-9.723 6.257,-11.048 4.779,-1.325 9.727,1.474 11.051,6.251 1.324,4.777 -1.477,9.724 -6.256,11.048 z"
       fill="#ffffff"
       stroke="#262626"
       stroke-width="1.22338"
       stroke-miterlimit="10"
       id="path44" />
    <path
       d="m 196.552,450.484 -0.005,27.67 -26.876,21.695 0.287,-26.652 z"
       fill="#ffffff"
       stroke="#262626"
       stroke-width="1.22338"
       stroke-miterlimit="10"
       id="path46" />
    <path
       d="m 294.03,491.677 0.225,44.317 -41.682,26.62 0.199,-42.79 z"
       fill="#ffffff"
       stroke="#262626"
       stroke-width="1.22338"
       stroke-miterlimit="10"
       id="path48" />
    <path
       d="m 433.972,521.922 c -18.414,5.104 -37.478,-5.679 -42.58,-24.084 -5.102,-18.406 5.691,-37.464 24.105,-42.569 18.415,-5.104 37.479,5.679 42.58,24.085 5.102,18.405 -5.69,37.464 -24.105,42.568 z"
       fill="#262626"
       id="path50" />
    <path
       d="m 425.204,507.094 c -18.415,5.104 -37.479,-5.679 -42.58,-24.084 -5.102,-18.406 5.69,-37.465 24.105,-42.569 18.414,-5.104 37.478,5.679 42.58,24.085 5.102,18.405 -5.691,37.464 -24.105,42.568 z"
       fill="#ffffff"
       stroke="#262626"
       stroke-width="1.22338"
       stroke-miterlimit="10"
       id="path52" />
    <path
       d="M 415.964,473.768 548.818,239.155"
       stroke="#ff6b00"
       stroke-width="1.22338"
       stroke-miterlimit="10"
       id="path54" />
    <path
       d="m 562.716,261.601 c -18.414,5.104 -37.478,-5.679 -42.58,-24.084 -5.101,-18.406 5.691,-37.464 24.105,-42.569 18.415,-5.104 37.479,5.679 42.58,24.085 5.102,18.405 -5.69,37.464 -24.105,42.568 z"
       fill="#ffffff"
       stroke="#ff6b00"
       stroke-width="1.22338"
       stroke-miterlimit="10"
       id="path56" />
    <path
       d="m 540.748,196.191 5.621,-13.338 32.433,40.869 -24.575,46.807 -6.031,-7.916"
       stroke="#ff6b00"
       stroke-width="1.22338"
       stroke-miterlimit="10"
       id="path58" />
    <path
       d="m 711.635,343.809 -0.481,-1.735 -15.937,-3.241 0.769,2.775 12.144,2.192 -0.135,-0.149 0.12,0.433 0.039,-0.197 -9.282,8.13 0.769,2.776 z m -28.719,16.367 0.661,2.386 13.879,-3.847 -0.661,-2.386 z m -13.806,3.827 0.662,2.385 13.878,-3.847 -0.661,-2.385 z m -13.805,3.827 0.661,2.385 13.879,-3.847 -0.661,-2.385 z m -16.606,-20.43 14.525,24.602 2.343,-0.649 -14.526,-24.603 z m -8.083,27.273 0.661,2.385 13.879,-3.847 -0.661,-2.385 z m -19.179,-3.091 15.937,3.242 -0.769,-2.775 -12.143,-2.192 0.134,0.149 -0.12,-0.433 -0.038,0.197 9.282,-8.13 -0.77,-2.776 -11.994,10.984 z"
       fill="#000000"
       id="path60" />
    <path
       d="m 418.393,478.574 c -3.373,0.935 -6.866,-1.041 -7.801,-4.413 -0.934,-3.372 1.043,-6.863 4.417,-7.798 3.373,-0.936 6.866,1.04 7.801,4.412 0.934,3.372 -1.043,6.864 -4.417,7.799 z"
       fill="#ffffff"
       stroke="#ff6b00"
       stroke-width="1.22338"
       stroke-miterlimit="10"
       id="path62" />
    <path
       d="m 661.841,124.821 34.024,-12.718 -4.089,-37.4927 35.085,-13.8341 4.23,38.0018 36.498,-13.678 4.328,39.344 -36.71,12.915 -35.692,12.633 3.975,38.072 -34.376,11.446 3.65,37.889 -33.315,10.33 -3.439,-37.126 -3.622,-36.8 32.962,-11.602 z"
       fill="#666666"
       id="path64" />
    <path
       d="m 658.219,88.0211 -3.877,-36.7297 33.671,-13.9901 3.763,37.3091 z"
       fill="#262626"
       id="path66" />
    <path
       d="m 628.836,137.257 -3.482,-36.291 32.865,-12.9448 3.622,36.8008 z"
       fill="#262626"
       id="path68" />
    <path
       d="m 593.947,113.233 -3.27,-35.528 31.196,-13.0302 3.482,36.2912 z"
       fill="#262626"
       id="path70" />
    <path
       d="m 597.288,149.016 31.548,-11.759 3.553,36.546 -31.945,11.32 -30.672,10.967 -3.27,-35.528 -3.199,-35.274 30.644,-12.055 z"
       fill="#ff6b00"
       id="path72" />
    <path
       d="M 654.342,51.2914 621.874,64.6744 618.533,28.8917 615.263,-6.63664 647.125,-21.221 680.443,-36.4832 684.32,0.246608 650.79,14.7455 Z"
       fill="#262626"
       id="path74" />
    <path
       d="m 557.186,55.7583 30.292,-13.3274 3.199,35.2739 -30.433,12.8186 z"
       fill="#262626"
       id="path76" />
    <path
       d="m 533.93,136.991 -2.988,-34.511 29.301,-11.9568 3.059,34.7648 z"
       fill="#262626"
       id="path78" />
    <path
       d="M 373.801,230.686 936.759,396.803"
       stroke="#ff6b00"
       stroke-width="1.22338"
       stroke-miterlimit="10"
       id="path80" />
  </g>
  <defs
     id="defs87">
    <clipPath
       id="clip0">
      <rect
         width="1003.13"
         height="769.271"
         fill="white"
         transform="matrix(-0.963665 0.267112 0.267112 0.963665 966.682 -135)"
         id="rect84" />
    </clipPath>
  </defs>
</svg>
