<?xml version="1.0" encoding="UTF-8" standalone="no"?>
<svg
   width="147"
   height="410"
   viewBox="0 0 147 410"
   fill="none"
   version="1.1"
   id="svg83"
   sodipodi:docname="cool_style.svg"
   inkscape:version="1.1 (c68e22c387, 2021-05-23)"
   xmlns:inkscape="http://www.inkscape.org/namespaces/inkscape"
   xmlns:sodipodi="http://sodipodi.sourceforge.net/DTD/sodipodi-0.dtd"
   xmlns="http://www.w3.org/2000/svg"
   xmlns:svg="http://www.w3.org/2000/svg">
  <sodipodi:namedview
     id="namedview85"
     pagecolor="#505050"
     bordercolor="#ffffff"
     borderopacity="1"
     inkscape:pageshadow="0"
     inkscape:pageopacity="0"
     inkscape:pagecheckerboard="1"
     showgrid="false"
     inkscape:zoom="1.9097561"
     inkscape:cx="73.569604"
     inkscape:cy="205.52363"
     inkscape:window-width="1920"
     inkscape:window-height="1001"
     inkscape:window-x="-9"
     inkscape:window-y="-9"
     inkscape:window-maximized="1"
     inkscape:current-layer="svg83" />
  <g
     clip-path="url(#clip0)"
     id="g76"
     transform="translate(1.5708812,48.173691)">
    <path
       d="m 206.82,347.489 13.421,-3.72 -3.718,-13.415 -13.421,3.721 -3.719,-13.415 13.422,-3.72 -3.719,-13.415 -13.421,3.72 -13.421,3.72 -3.718,-13.414 13.421,-3.72 -3.719,-13.415 -13.421,3.72 3.719,13.415 -13.422,3.72 -13.421,3.72 -3.718,-13.415 -13.421,3.721 -13.421,3.72 3.718,13.414 3.718,13.415 -13.421,3.72 -3.718,-13.414 -5.988,1.659 -6.264,-90.38 c 0,0 8.892,-13.243 32.782,-14.087 35.784,-1.251 53.347,17.993 82.961,24.563 18.611,4.175 22.74,-4.192 22.74,-4.192 l 12.076,77.658 c 0,0 31.148,-6.745 48.934,14.104 10.554,12.409 -5.31,25.362 -21.725,29.912 -17.138,4.751 -37.407,1.813 -69.859,-6.971 z"
       fill="#ffffff"
       stroke="#ff6b00"
       stroke-width="0.496227"
       stroke-miterlimit="10"
       id="path48" />
    <path
       d="m 144.156,329.967 c -5.224,0.004 -9.806,0.718 -13.964,1.76 l -1.631,-5.882 13.421,-3.72 z"
       fill="#ffffff"
       stroke="#ff6b00"
       stroke-width="0.496227"
       stroke-miterlimit="10"
       id="path50" />
    <path
       d="m 108.535,345.841 -1.032,0.286 -1.035,-14.158 8.673,-2.404 2.173,7.842 c -4.423,2.893 -7.407,6.165 -8.779,8.434 z"
       fill="#ffffff"
       stroke="#ff6b00"
       stroke-width="0.496227"
       stroke-miterlimit="10"
       id="path52" />
    <path
       d="m 138.262,308.712 13.422,-3.72 3.718,13.414 -13.421,3.72 z"
       fill="#ffffff"
       stroke="#ff6b00"
       stroke-width="0.496227"
       stroke-miterlimit="10"
       id="path54" />
    <path
       d="m 155.731,215.306 c 0,0 -12.984,-6.735 -29.422,-1.067 -16.439,5.667 -56.1121,42.221 -56.1121,42.221 l -1.2466,70.905 c 0,0 48.4207,-41.089 64.3707,-44.51 15.199,-3.324 28.154,3.307 28.154,3.307 z"
       fill="#262626"
       id="path56" />
    <path
       d="m 143.07,197.704 c 0,0 -12.258,-3.714 -29.423,-1.067 -15.4559,2.395 -56.1116,42.221 -56.1116,42.221 l -1.2466,70.906 c 0,0 48.9072,-39.336 64.3712,-44.511 15.463,-5.175 27.869,0.275 27.869,0.275 z"
       fill="#ffffff"
       stroke="#ff6b00"
       stroke-width="0.496227"
       stroke-miterlimit="10"
       id="path58" />
    <path
       d="m 102.318,201.888 0.231,31.716 -30.8968,24.898 0.1772,-33.051 22.5605,-18.476 z"
       fill="#262626"
       id="path60" />
    <path
       d="m 137.853,337.713 34.689,-9.615 6.092,21.979 -34.688,9.615 z"
       fill="#ffffff"
       stroke="#ff6b00"
       stroke-width="0.496227"
       stroke-miterlimit="10"
       id="path62" />
    <path
       d="m 169.818,341.249 -3.806,3.485 -0.244,-0.881 2.922,-2.558 -0.016,-0.055 -3.821,-0.689 -0.244,-0.881 5.056,1.029 z m -10.001,-2.503 0.743,-0.206 4.609,7.806 -0.743,0.206 z m -3.383,8.88 -3.937,-2.228 2.228,-3.937 0.676,0.383 -1.578,2.779 5.649,-1.566 0.21,0.757 -5.649,1.566 2.785,1.577 z m -10.13,0.141 -0.153,-0.551 3.806,-3.485 0.244,0.881 -2.921,2.558 0.015,0.055 3.822,0.69 0.244,0.88 z"
       fill="#000000"
       id="path64" />
    <path
       d="m 94.3418,199.989 0.1276,31.744 -30.897,24.899 0.187,-30.609 z"
       fill="#ffffff"
       stroke="#262626"
       stroke-width="0.496227"
       stroke-miterlimit="10"
       id="path66" />
    <path
       d="m 138.699,173.915 -2.807,-29.78 30.925,-24.795 2.464,28.541 z"
       fill="#ffffff"
       stroke="#262626"
       stroke-width="0.496227"
       stroke-miterlimit="10"
       id="path68" />
    <path
       d="m 152.591,151.842 c -1.939,0.537 -3.946,-0.598 -4.483,-2.535 -0.537,-1.938 0.599,-3.944 2.538,-4.482 1.939,-0.537 3.946,0.598 4.483,2.536 0.537,1.937 -0.599,3.944 -2.538,4.481 z"
       fill="#ffffff"
       stroke="#262626"
       stroke-width="0.496227"
       stroke-miterlimit="10"
       id="path70" />
    <path
       d="m 79.7207,237.489 -0.0019,11.223 -10.9015,8.8 0.1163,-10.81 z"
       fill="#ffffff"
       stroke="#262626"
       stroke-width="0.496227"
       stroke-miterlimit="10"
       id="path72" />
    <path
       d="m 119.26,254.197 0.091,17.976 -16.907,10.798 0.081,-17.357 z"
       fill="#ffffff"
       stroke="#262626"
       stroke-width="0.496227"
       stroke-miterlimit="10"
       id="path74" />
  </g>
  <defs
     id="defs81">
    <clipPath
       id="clip0">
      <rect
         width="406.889"
         height="312.031"
         fill="white"
         transform="matrix(-0.963665 0.267112 0.267112 0.963665 392.104 0)"
         id="rect78" />
    </clipPath>
  </defs>
</svg>
